<svg width="24" height="24" viewBox="0 0 24 24" fill="none" xmlns="http://www.w3.org/2000/svg">
<path d="M18.3059 21V19C18.3059 17.9391 17.9264 16.9217 17.251 16.1716C16.5755 15.4214 15.6594 15 14.7042 15H9.30165C8.34642 15 7.43032 15.4214 6.75487 16.1716C6.07942 16.9217 5.69995 17.9391 5.69995 19V21" stroke="currentColor" stroke-width="2" stroke-linecap="round" stroke-linejoin="round"/>
<path d="M18.3 5.01758C19.0724 5.2178 19.7564 5.66882 20.2447 6.29983C20.7329 6.93084 20.9979 7.70613 20.9979 8.504C20.9979 9.30187 20.7329 10.0772 20.2447 10.7082C19.7564 11.3392 19.0724 11.7902 18.3 11.9904" stroke="currentColor" stroke-width="2" stroke-linecap="round" stroke-linejoin="round"/>
<path d="M5.69788 5.01758C4.92554 5.2178 4.24154 5.66882 3.75326 6.29983C3.26498 6.93084 3.00004 7.70613 3.00004 8.504C3.00004 9.30187 3.26498 10.0772 3.75326 10.7082C4.24154 11.3392 4.92554 11.7902 5.69788 11.9904" stroke="currentColor" stroke-width="2" stroke-linecap="round" stroke-linejoin="round"/>
<path d="M23.0013 21.1102V19.3093C23.0007 18.5113 22.7351 17.7361 22.2462 17.1054C21.7573 16.4747 21.0727 16.0242 20.3 15.8247" stroke="currentColor" stroke-width="2" stroke-linecap="round" stroke-linejoin="round"/>
<path d="M1.00004 21.1102V19.3093C1.00063 18.5113 1.26624 17.7361 1.75516 17.1054C2.24408 16.4747 2.92862 16.0242 3.70129 15.8247" stroke="currentColor" stroke-width="2" stroke-linecap="round" stroke-linejoin="round"/>
<path d="M12 11C14.2091 11 16 9.20914 16 7C16 4.79086 14.2091 3 12 3C9.79086 3 8 4.79086 8 7C8 9.20914 9.79086 11 12 11Z" stroke="currentColor" stroke-width="2" stroke-linecap="round" stroke-linejoin="round"/>
</svg>
